<svg t="1589270660664"
     class="icon"
     viewBox="0 0 1024 1024"
     version="1.1"
     xmlns="http://www.w3.org/2000/svg"
     p-id="1843" width="32" height="32">
    <path d="M528.99294534 561.11394066c-132.96936275 0-241.14863817-108.17927556-241.14863812-241.14863819s108.17927556-241.14863817 241.14863812-241.14863833 241.14863817 108.17927556 241.14862503 241.14863833-108.16320303 241.14863817-241.14862503 241.14863819z m0-401.9143926c-88.6462329 0-160.76575442 72.11952135-160.76576779 160.76575441s72.11952135 160.76575442 160.76576779 160.76575436 160.76575442-72.11952135 160.76575424-160.76575436-72.11952135-160.76575442-160.76575424-160.76575441z"
          fill="#1296db" p-id="1844"></path>
    <path d="M512.91636858 963.02833313c-121.90867737 0-238.49599397-13.15063451-319.87563487-36.07583973-95.01256847-26.73534445-138.43538911-63.14878533-129.07882143-108.22750621C104.5874231 622.88013724 293.39072218 480.73105683 512.91636858 480.73105683c219.50956065 0 408.32894534 142.1330079 448.9705287 337.97785784 9.35656784 45.09479318-34.06626614 81.49216141-129.09490718 108.22750622-81.36355525 22.94127787-197.96695767 36.09191223-319.87562152 36.09191224z m-367.17291114-141.3291731c9.61379326 6.41455295 30.64195833 17.0733208 69.0649597 27.87678041 74.59531561 21.01207943 183.24081162 33.06952211 298.09186569 33.06950894 114.86713977 0 223.49654995-12.05742909 298.09186543-33.06950894 38.43908692-10.81953207 59.46725236-21.46222762 69.08105871-27.87678041-38.66416763-151.79503155-190.68426665-260.56913393-367.17292414-260.56914705s-328.49267091 108.79018785-367.15682539 260.56914705z"
          fill="#1296db" p-id="1845"></path>
</svg>
